HIERARCHY
ROOT Hips
{
	OFFSET -1.602300 6.242603 43.997101
	CHANNELS 6 Xposition Yposition Zposition Zrotation Xrotation Yrotation
	JOINT Chest
	{
		OFFSET -0.204900 1.598101 7.917301
		CHANNELS 6 Xposition Yposition Zposition Zrotation Xrotation Yrotation
		JOINT Chest2
		{
			OFFSET 0.000000 0.000000 3.404099
			CHANNELS 6 Xposition Yposition Zposition Zrotation Xrotation Yrotation
			JOINT Neck
			{
				OFFSET 0.000000 0.000000 7.928600
				CHANNELS 6 Xposition Yposition Zposition Zrotation Xrotation Yrotation
				JOINT Head
				{
					OFFSET 0.000000 0.000000 2.173897
					CHANNELS 6 Xposition Yposition Zposition Zrotation Xrotation Yrotation
					End Site
					{
						OFFSET 0.000000 0.000001 10.404503
					}
				}
			}
			JOINT LeftCollar
			{
				OFFSET 2.833800 -1.396299 4.843300
				CHANNELS 6 Xposition Yposition Zposition Zrotation Xrotation Yrotation
				JOINT LeftShoulder
				{
					OFFSET 4.363600 0.000000 0.000000
					CHANNELS 6 Xposition Yposition Zposition Zrotation Xrotation Yrotation
					JOINT LeftElbow
					{
						OFFSET 0.000000 -0.000001 -10.306900
						CHANNELS 6 Xposition Yposition Zposition Zrotation Xrotation Yrotation
						JOINT LeftWrist
						{
							OFFSET 0.000000 -0.000001 -12.404900
							CHANNELS 6 Xposition Yposition Zposition Zrotation Xrotation Yrotation
							End Site
							{
								OFFSET 0.000000 0.000000 -2.173901
							}
						}
					}
				}
			}
			JOINT RightCollar
			{
				OFFSET -2.354800 -1.897200 5.063099
				CHANNELS 6 Xposition Yposition Zposition Zrotation Xrotation Yrotation
				JOINT RightShoulder
				{
					OFFSET -4.375800 0.000000 0.000000
					CHANNELS 6 Xposition Yposition Zposition Zrotation Xrotation Yrotation
					JOINT RightElbow
					{
						OFFSET 0.000000 -0.000001 -10.005001
						CHANNELS 6 Xposition Yposition Zposition Zrotation Xrotation Yrotation
						JOINT RightWrist
						{
							OFFSET 0.000000 -0.000001 -13.174900
							CHANNELS 6 Xposition Yposition Zposition Zrotation Xrotation Yrotation
							End Site
							{
								OFFSET 0.000000 0.000000 -2.173901
							}
						}
					}
				}
			}
		}
	}
	JOINT LeftHip
	{
		OFFSET 2.240600 0.386800 -2.614101
		CHANNELS 6 Xposition Yposition Zposition Zrotation Xrotation Yrotation
		JOINT LeftKnee
		{
			OFFSET 0.000000 -0.000001 -18.592899
			CHANNELS 6 Xposition Yposition Zposition Zrotation Xrotation Yrotation
			JOINT LeftAnkle
			{
				OFFSET 0.000000 -0.000001 -18.765800
				CHANNELS 6 Xposition Yposition Zposition Zrotation Xrotation Yrotation
				End Site
				{
					OFFSET 0.000000 -8.655000 0.000000
				}
			}
		}
	}
	JOINT RightHip
	{
		OFFSET -2.014900 -0.220900 -2.615898
		CHANNELS 6 Xposition Yposition Zposition Zrotation Xrotation Yrotation
		JOINT RightKnee
		{
			OFFSET 0.000000 -0.000001 -18.633900
			CHANNELS 6 Xposition Yposition Zposition Zrotation Xrotation Yrotation
			JOINT RightAnkle
			{
				OFFSET 0.000000 -0.000001 -18.285101
				CHANNELS 6 Xposition Yposition Zposition Zrotation Xrotation Yrotation
				End Site
				{
					OFFSET 0.000000 -7.524500 0.000000
				}
			}
		}
	}
}
MOTION
Frames: 7
Frame Time: 0.041667
-2.391296 23.614803 7.226406 -31.314997 -18.009476 14.589941 -0.204899 1.598095 7.917305 35.181751 15.275481 -2.167625 0.000000 0.000003 3.404102 -18.635889 -10.879272 -3.140650 -0.000004 0.000002 7.928605 32.289514 9.526242 -35.204366 0.000002 -0.000002 2.173908 1.019741 3.170200 1.472740 2.833801 -1.396298 4.843307 -3.990377 13.435546 4.329808 4.363591 0.000000 0.000001 -27.808362 19.612774 -79.355364 0.000002 0.000008 -10.306906 609.140312 -119.238874 628.984580 0.000001 -0.000000 -12.404895 60.893773 363.891551 -357.065624 -2.354802 -1.897202 5.063102 25.220048 12.423392 -24.643843 -4.375800 0.000012 -0.000003 58.552978 -11.861278 57.174527 -0.000003 0.000013 -10.005004 -612.953088 -169.425014 -615.778928 -0.000003 0.000008 -13.174901 -45.851709 -2.359125 265.777223 2.240602 0.386804 -2.614103 80.573269 -60.864424 81.636634 0.000003 0.000001 -18.592901 -15.429501 40.422449 3.995386 0.000004 0.000001 -18.765797 -61.695453 71.867387 37.136227 -2.014898 -0.220897 -2.615901 -96.344435 -14.280843 -69.181012 -0.000001 0.000003 -18.633881 111.985637 -1.805798 -163.637590 -0.000008 -0.000006 -18.285086 -51.402696 32.901701 -173.255535
-2.389997 23.615904 7.223907 -31.291982 -18.023387 14.637917 -0.204898 1.598099 7.917309 35.179876 15.290746 -2.236592 0.000000 -0.000001 3.404100 -18.522027 -10.879826 -3.133742 -0.000004 -0.000001 7.928599 32.324072 9.546755 -35.247816 0.000000 -0.000001 2.173895 0.946718 3.153468 1.446284 2.833800 -1.396303 4.843305 -3.980766 13.370062 4.410578 4.363591 0.000003 -0.000001 -27.876157 19.586660 -79.447579 0.000003 0.000011 -10.306905 609.252328 -119.512382 629.031954 0.000001 0.000001 -12.404896 60.434409 364.045258 -356.616416 -2.354803 -1.897200 5.063100 25.377392 12.491391 -24.509545 -4.375796 0.000010 0.000007 58.263911 -12.110536 56.980399 -0.000005 0.000009 -10.005002 -612.708239 -169.525309 -615.596754 -0.000005 0.000007 -13.174900 -45.556549 -2.323688 265.946966 2.240601 0.386807 -2.614103 80.566685 -60.864977 81.638669 0.000003 -0.000003 -18.592897 -15.431508 40.446762 3.973539 0.000000 0.000001 -18.765795 -61.728682 71.838932 37.247661 -2.014898 -0.220895 -2.615896 -96.329600 -14.273984 -69.154593 -0.000001 0.000001 -18.633883 111.956745 -1.798351 -163.641101 -0.000004 -0.000005 -18.285084 -51.400657 32.890332 -173.251901
-2.388396 23.617006 7.221310 -31.271509 -18.031792 14.683809 -0.204900 1.598104 7.917305 35.177018 15.306321 -2.294331 -0.000000 0.000000 3.404103 -18.380094 -10.862095 -3.117026 -0.000004 0.000000 7.928602 32.287769 9.551612 -35.269734 0.000000 0.000001 2.173906 0.901815 3.120139 1.426435 2.833799 -1.396303 4.843306 -3.955942 13.290538 4.433954 4.363587 0.000004 -0.000003 -27.998083 19.546932 -79.516857 0.000006 0.000005 -10.306903 609.370189 -119.660775 629.066542 0.000001 -0.000001 -12.404893 60.069540 364.239099 -356.140024 -2.354805 -1.897204 5.063102 25.464012 12.509686 -24.322722 -4.375799 0.000009 0.000002 57.995833 -12.314489 56.684375 -0.000004 0.000011 -10.005004 -612.476669 -169.349063 -615.486815 -0.000004 0.000006 -13.174906 -45.591007 -2.307602 266.088105 2.240601 0.386809 -2.614102 80.568782 -60.870373 81.650192 0.000002 -0.000002 -18.592897 -15.415004 40.471070 3.945973 0.000002 0.000001 -18.765797 -61.724973 71.813954 37.320034 -2.014898 -0.220891 -2.615896 -96.333651 -14.241212 -69.141281 -0.000000 0.000002 -18.633884 111.962018 -1.790477 -163.648259 -0.000003 -0.000005 -18.285084 -51.394622 32.881859 -173.253062
-2.386496 23.618008 7.218609 -31.255390 -18.036221 14.724015 -0.204897 1.598097 7.917307 35.175081 15.324344 -2.342708 0.000000 0.000004 3.404106 -18.213495 -10.828530 -3.089511 -0.000002 0.000002 7.928599 32.220806 9.551255 -35.285608 0.000001 0.000006 2.173904 0.860326 3.058751 1.421092 2.833802 -1.396298 4.843305 -3.927529 13.208140 4.415434 4.363588 0.000004 -0.000002 -28.149224 19.493954 -79.566861 0.000003 0.000003 -10.306904 609.509908 -119.630709 629.087907 0.000001 -0.000000 -12.404900 59.854826 364.452201 -355.653824 -2.354801 -1.897198 5.063105 25.400541 12.435450 -24.123549 -4.375799 0.000006 0.000011 57.819382 -12.433382 56.315572 -0.000003 0.000014 -10.005005 -612.260124 -169.191518 -615.379499 -0.000005 0.000006 -13.174905 -45.651410 -2.312485 266.200612 2.240602 0.386804 -2.614101 80.579225 -60.879115 81.669801 0.000002 -0.000000 -18.592901 -15.435551 40.498961 3.944611 0.000002 0.000001 -18.765793 -61.632608 71.786381 37.292843 -2.014896 -0.220898 -2.615897 -96.361484 -14.177232 -69.141219 0.000001 0.000003 -18.633883 112.009365 -1.784134 -163.660007 -0.000002 -0.000004 -18.285084 -51.385982 32.877775 -173.258554
-2.384098 23.619102 7.215412 -31.245489 -18.036545 14.755707 -0.204897 1.598099 7.917303 35.176728 15.346014 -2.388647 0.000001 0.000004 3.404098 -18.023940 -10.785635 -3.057450 -0.000004 -0.000001 7.928603 32.078195 9.598134 -35.231639 -0.000001 -0.000000 2.173909 0.862431 2.993173 1.384000 2.833801 -1.396301 4.843300 -3.914897 13.139589 4.334017 4.363591 0.000005 -0.000000 -28.336437 19.365203 -79.580412 0.000007 0.000007 -10.306906 609.539141 -119.642866 629.033539 0.000000 -0.000001 -12.404894 59.553369 364.643801 -355.122107 -2.354802 -1.897203 5.063098 26.080080 12.159365 -23.919459 -4.375797 0.000010 0.000005 56.924132 -12.736674 55.985910 -0.000001 0.000012 -10.005003 -612.065054 -169.006023 -615.263768 -0.000004 0.000005 -13.174907 -45.870048 -2.395553 265.688212 2.240602 0.386804 -2.614102 80.606600 -60.882175 81.703959 0.000004 -0.000001 -18.592901 -15.516438 40.532487 3.978054 -0.000001 0.000001 -18.765797 -61.456300 71.755024 37.153401 -2.014897 -0.220895 -2.615896 -96.409411 -14.089537 -69.156089 0.000000 0.000003 -18.633886 112.093991 -1.777872 -163.675935 -0.000005 -0.000005 -18.285084 -51.373425 32.878871 -173.269919
-2.381197 23.620399 7.211704 -31.243211 -18.033407 14.779717 -0.204901 1.598097 7.917307 35.182940 15.372065 -2.429979 0.000001 0.000002 3.404097 -17.823983 -10.744260 -3.025033 -0.000003 0.000002 7.928601 31.918505 9.651598 -35.174733 0.000002 0.000001 2.173902 0.879585 2.934368 1.317167 2.833800 -1.396300 4.843306 -3.962041 13.152076 4.301548 4.363588 0.000007 0.000001 -28.452029 19.151821 -79.680625 0.000003 0.000004 -10.306904 609.680990 -119.630873 628.983050 0.000003 0.000000 -12.404895 59.202051 364.996758 -354.564272 -2.354802 -1.897197 5.063104 25.862925 12.088622 -23.761514 -4.375797 0.000010 0.000005 56.966305 -12.670273 55.684681 -0.000004 0.000008 -10.005004 -611.976972 -168.830583 -615.173063 -0.000003 0.000006 -13.174905 -45.956726 -2.457600 265.708702 2.240600 0.386804 -2.614106 80.654255 -60.878125 81.754892 0.000003 0.000002 -18.592897 -15.675784 40.573728 4.054913 0.000003 0.000002 -18.765795 -61.192621 71.721515 36.899885 -2.014899 -0.220897 -2.615900 -96.472215 -13.983806 -69.184885 0.000001 0.000001 -18.633884 112.208383 -1.770913 -163.695524 -0.000004 -0.000005 -18.285086 -51.357039 32.884998 -173.287049
-2.377797 23.622105 7.207409 -31.247750 -18.026425 14.797618 -0.204898 1.598098 7.917310 35.193274 15.406709 -2.467236 0.000001 0.000001 3.404101 -17.653630 -10.715648 -3.002111 -0.000005 0.000001 7.928604 31.776615 9.726184 -35.108805 -0.000001 0.000001 2.173900 0.903051 2.856260 1.249970 2.833800 -1.396301 4.843305 -4.012906 13.178018 4.323299 4.363596 0.000004 0.000001 -28.504195 18.950039 -79.830090 0.000003 0.000009 -10.306909 609.675963 -119.469858 628.931906 0.000002 0.000001 -12.404891 58.972987 365.208193 -353.996957 -2.354802 -1.897200 5.063102 25.702138 12.091962 -23.666757 -4.375799 0.000010 0.000002 57.049435 -12.566474 55.522376 -0.000002 0.000014 -10.005007 -611.946373 -168.794260 -615.134760 -0.000004 0.000005 -13.174903 -45.899561 -2.531941 265.685999 2.240601 0.386806 -2.614103 80.725377 -60.865749 81.825345 0.000003 -0.000001 -18.592897 -15.879416 40.622649 4.154401 0.000003 0.000002 -18.765797 -60.874040 71.687227 36.551255 -2.014897 -0.220894 -2.615897 -96.541022 -13.872972 -69.223674 0.000001 0.000006 -18.633883 112.333792 -1.763859 -163.716643 -0.000003 -0.000005 -18.285086 -51.338895 32.894881 -173.307417
